<?xml version="1.0" standalone="no"?>
<!DOCTYPE svg PUBLIC "-//W3C//DTD SVG 20010904//EN"
 "http://www.w3.org/TR/2001/REC-SVG-20010904/DTD/svg10.dtd">
<svg version="1.0" xmlns="http://www.w3.org/2000/svg"
 width="300.000000pt" height="153.000000pt" viewBox="0 0 300.000000 153.000000"
 preserveAspectRatio="xMidYMid meet">
<metadata>
Created by potrace 1.10, written by Peter Selinger 2001-2011
</metadata>
<g transform="translate(0.000000,153.000000) scale(0.100000,-0.100000)"
fill="#000000" stroke="none">
<path d="M120 1302 l0 -231 -62 -4 -63 -3 63 -2 62 -2 0 -190 0 -189 -62 -4
-63 -3 63 -2 62 -2 0 -90 0 -89 -62 -4 -63 -3 63 -2 62 -2 0 -190 0 -189 -62
-4 -63 -3 62 -2 62 -2 4 -47 3 -48 2 47 2 47 88 4 87 3 -87 2 -88 2 0 190 0
189 285 0 284 0 4 -122 3 -122 2 122 2 122 43 4 42 4 -42 1 -42 2 0 516 c0
284 -2 519 -5 522 -3 3 -6 -99 -6 -226 l0 -232 -100 0 c-89 0 -99 -2 -93 -17
4 -11 8 -12 11 -5 2 8 32 12 93 12 l89 0 0 -191 0 -190 -95 2 c-53 1 -99 -1
-102 -5 -3 -3 39 -6 95 -6 l102 0 0 -90 0 -90 -285 0 -284 0 0 285 0 284 87 4
87 3 -87 2 -88 2 1 226 c0 124 -2 229 -5 232 -3 3 -6 -99 -6 -226z"/>
<path d="M2250 1498 c-1 -18 -2 -81 -3 -141 -1 -59 1 -107 6 -107 4 0 7 63 7
140 0 77 -2 140 -5 140 -3 0 -5 -15 -5 -32z"/>
<path d="M1845 1460 c-17 -19 -30 -20 -322 -20 -337 0 -357 -3 -393 -62 -19
-31 -20 -50 -20 -345 0 -202 -4 -313 -10 -313 -5 0 -10 -7 -10 -15 0 -29 27
-15 73 39 26 30 47 57 47 60 0 13 -24 5 -36 -11 -11 -15 -13 27 -14 263 0 263
1 283 19 305 l19 24 287 3 c264 3 286 2 283 -14 -6 -33 17 -21 66 32 33 36 46
58 40 64 -7 7 -17 4 -29 -10z"/>
<path d="M578 1453 c17 -2 47 -2 65 0 17 2 3 4 -33 4 -36 0 -50 -2 -32 -4z"/>
<path d="M2897 1453 c18 -2 50 -2 70 0 21 2 7 4 -32 4 -38 0 -55 -2 -38 -4z"/>
<path d="M2443 1355 c0 -44 2 -61 4 -37 2 23 2 59 0 80 -2 20 -4 1 -4 -43z"/>
<path d="M2833 1355 c0 -44 2 -61 4 -37 2 23 2 59 0 80 -2 20 -4 1 -4 -43z"/>
<path d="M1830 1355 c-44 -44 -52 -57 -41 -67 10 -11 14 -10 22 5 25 43 29 7
28 -250 0 -277 -5 -312 -44 -327 -9 -3 -143 -6 -297 -6 -240 0 -279 2 -269 14
8 9 8 16 2 20 -15 10 -123 -106 -111 -118 6 -6 18 -2 33 12 23 22 28 22 333
22 292 0 311 1 342 20 59 36 62 56 62 394 0 196 4 307 10 311 11 7 4 25 -8 25
-4 0 -32 -25 -62 -55z"/>
<path d="M2832 1265 c-5 -18 -2 -368 3 -373 3 -3 5 33 5 81 l0 86 83 4 82 3
-82 2 -82 2 -4 103 c-1 56 -4 98 -5 92z"/>
<path d="M183 1253 c20 -2 54 -2 75 0 20 2 3 4 -38 4 -41 0 -58 -2 -37 -4z"/>
<path d="M377 1253 c18 -2 50 -2 70 0 21 2 7 4 -32 4 -38 0 -55 -2 -38 -4z"/>
<path d="M573 1253 c20 -2 54 -2 75 0 20 2 3 4 -38 4 -41 0 -58 -2 -37 -4z"/>
<path d="M767 1253 c18 -2 50 -2 70 0 21 2 7 4 -32 4 -38 0 -55 -2 -38 -4z"/>
<path d="M958 1253 c17 -2 47 -2 65 0 17 2 3 4 -33 4 -36 0 -50 -2 -32 -4z"/>
<path d="M2123 1253 c20 -2 54 -2 75 0 20 2 3 4 -38 4 -41 0 -58 -2 -37 -4z"/>
<path d="M2317 1253 c18 -2 50 -2 70 0 21 2 7 4 -32 4 -38 0 -55 -2 -38 -4z"/>
<path d="M2508 1253 c23 -2 59 -2 80 0 20 2 1 4 -43 4 -44 0 -61 -2 -37 -4z"/>
<path d="M2697 1253 c18 -2 50 -2 70 0 21 2 7 4 -32 4 -38 0 -55 -2 -38 -4z"/>
<path d="M2893 1253 c20 -2 54 -2 75 0 20 2 3 4 -38 4 -41 0 -58 -2 -37 -4z"/>
<path d="M1283 1170 c0 -41 2 -58 4 -37 2 20 2 54 0 75 -2 20 -4 3 -4 -38z"/>
<path d="M1355 1035 l0 -205 148 0 147 0 0 45 0 45 -100 0 -100 0 0 40 0 40
85 0 85 0 0 45 0 45 -85 0 -85 0 0 33 0 33 100 -4 100 -4 0 46 0 46 -147 0
-148 0 0 -205z m125 167 c0 -5 -11 -14 -25 -20 -50 -23 -45 -100 7 -125 19
-10 26 -17 16 -17 -27 0 -58 -40 -58 -76 0 -48 9 -65 44 -80 l31 -13 -47 -1
c-39 0 -48 3 -53 21 -7 22 4 298 12 312 6 10 73 9 73 -1z"/>
<path d="M2252 1155 c-2 -49 -3 -219 -2 -377 l0 -287 -23 -4 -22 -4 23 -2 c22
-1 22 -3 21 -122 0 -66 2 -123 5 -126 3 -4 6 51 6 120 l0 126 366 0 c202 0
369 3 372 6 3 3 -31 5 -76 5 l-81 0 -4 88 -3 87 -2 -87 -2 -88 -190 0 -190 0
0 89 c0 61 4 91 12 93 27 9 -22 13 -107 7 l-90 -5 88 -2 87 -2 0 -90 0 -90
-90 0 -90 0 0 285 0 285 90 0 89 0 4 -87 3 -88 2 87 2 87 88 4 87 3 -87 2 -87
2 -4 88 -3 87 -2 -87 -2 -88 -90 0 -89 0 -4 88 -3 87 -2 -90z"/>
<path d="M1245 1070 l-40 -6 43 -5 c24 -2 45 -1 48 2 7 12 -9 15 -51 9z"/>
<path d="M378 1063 c23 -2 59 -2 80 0 20 2 1 4 -43 4 -44 0 -61 -2 -37 -4z"/>
<path d="M768 1063 c23 -2 59 -2 80 0 20 2 1 4 -43 4 -44 0 -61 -2 -37 -4z"/>
<path d="M947 1063 c18 -2 50 -2 70 0 21 2 7 4 -32 4 -38 0 -55 -2 -38 -4z"/>
<path d="M1967 1063 c18 -2 50 -2 70 0 21 2 7 4 -32 4 -38 0 -55 -2 -38 -4z"/>
<path d="M2118 1063 c23 -2 59 -2 80 0 20 2 1 4 -43 4 -44 0 -61 -2 -37 -4z"/>
<path d="M2698 1063 c23 -2 59 -2 80 0 20 2 1 4 -43 4 -44 0 -61 -2 -37 -4z"/>
<path d="M1283 970 c0 -41 2 -58 4 -37 2 20 2 54 0 75 -2 20 -4 3 -4 -38z"/>
<path d="M388 873 c17 -2 47 -2 65 0 17 2 3 4 -33 4 -36 0 -50 -2 -32 -4z"/>
<path d="M2128 873 c17 -2 47 -2 65 0 17 2 3 4 -33 4 -36 0 -50 -2 -32 -4z"/>
<path d="M2318 873 c17 -2 47 -2 65 0 17 2 3 4 -33 4 -36 0 -50 -2 -32 -4z"/>
<path d="M2718 873 c18 -2 45 -2 60 0 15 2 0 4 -33 4 -33 0 -45 -2 -27 -4z"/>
<path d="M2893 873 c20 -2 54 -2 75 0 20 2 3 4 -38 4 -41 0 -58 -2 -37 -4z"/>
<path d="M2443 775 c0 -44 2 -61 4 -37 2 23 2 59 0 80 -2 20 -4 1 -4 -43z"/>
<path d="M2833 775 c0 -44 2 -61 4 -37 2 23 2 59 0 80 -2 20 -4 1 -4 -43z"/>
<path d="M1975 680 l-80 -6 88 -2 c57 -1 86 2 82 8 -3 6 -7 9 -8 8 -1 -1 -38
-5 -82 -8z"/>
<path d="M2823 678 c-2 -5 38 -7 89 -7 97 2 89 6 -20 11 -35 2 -66 0 -69 -4z"/>
<path d="M188 673 c23 -2 59 -2 80 0 20 2 1 4 -43 4 -44 0 -61 -2 -37 -4z"/>
<path d="M378 673 c23 -2 59 -2 80 0 20 2 1 4 -43 4 -44 0 -61 -2 -37 -4z"/>
<path d="M768 673 c23 -2 59 -2 80 0 20 2 1 4 -43 4 -44 0 -61 -2 -37 -4z"/>
<path d="M953 673 c20 -2 54 -2 75 0 20 2 3 4 -38 4 -41 0 -58 -2 -37 -4z"/>
<path d="M2118 673 c23 -2 59 -2 80 0 20 2 1 4 -43 4 -44 0 -61 -2 -37 -4z"/>
<path d="M2513 673 c20 -2 54 -2 75 0 20 2 3 4 -38 4 -41 0 -58 -2 -37 -4z"/>
<path d="M2698 673 c23 -2 59 -2 80 0 20 2 1 4 -43 4 -44 0 -61 -2 -37 -4z"/>
<path d="M1863 595 c0 -33 2 -45 4 -27 2 18 2 45 0 60 -2 15 -4 0 -4 -33z"/>
<path d="M513 580 c0 -36 2 -50 4 -32 2 17 2 47 0 65 -2 17 -4 3 -4 -33z"/>
<path d="M835 410 l0 -90 68 0 c61 0 67 2 67 21 0 18 -5 20 -47 18 -42 -3 -48
-1 -48 16 0 17 6 20 38 18 31 -2 37 1 37 17 0 17 -7 20 -40 20 -29 0 -40 4
-40 15 0 11 12 15 50 15 43 0 50 3 50 20 0 18 -7 20 -67 20 l-68 0 0 -90z"/>
<path d="M1020 411 c0 -86 1 -91 21 -91 19 0 21 4 16 40 -3 22 -1 40 4 40 4 0
14 -18 20 -40 10 -34 16 -40 39 -40 23 0 29 6 39 40 6 22 16 40 20 40 5 0 7
-18 4 -40 -5 -36 -3 -40 16 -40 20 0 21 5 21 91 0 87 -1 90 -22 87 -16 -2 -28
-19 -47 -65 -14 -35 -28 -63 -31 -63 -3 0 -17 28 -31 63 -19 46 -31 63 -47 65
-21 3 -22 0 -22 -87z"/>
<path d="M1325 488 c-2 -7 -16 -45 -30 -84 -14 -39 -25 -74 -25 -78 0 -16 39
-4 45 14 4 14 15 20 35 20 19 0 29 -6 33 -20 3 -12 14 -20 27 -20 24 0 25 -7
-14 108 -18 52 -28 68 -44 70 -12 2 -24 -3 -27 -10z m35 -74 c0 -14 -5 -24
-11 -22 -6 2 -10 7 -10 11 1 4 1 14 1 22 0 8 5 15 10 15 6 0 10 -12 10 -26z"/>
<path d="M1480 410 c0 -83 1 -90 20 -90 16 0 20 7 20 35 0 19 4 35 8 35 5 0
16 -16 25 -35 11 -23 24 -35 37 -35 24 0 25 8 4 38 -15 21 -15 25 0 41 23 25
21 78 -3 91 -11 5 -40 10 -65 10 l-46 0 0 -90z m93 44 c12 -12 -6 -34 -29 -34
-17 0 -24 6 -24 20 0 14 7 20 23 20 13 0 26 -3 30 -6z"/>
<path d="M1665 410 c0 -87 1 -90 23 -90 18 0 22 6 22 30 0 17 4 30 9 30 6 0
18 -13 28 -30 13 -22 25 -30 46 -30 l29 0 -40 47 -40 47 35 43 35 43 -25 0
c-18 0 -31 -10 -47 -35 -12 -19 -26 -35 -31 -35 -6 0 -7 15 -3 35 6 32 4 35
-17 35 -23 0 -24 -2 -24 -90z"/>
<path d="M1850 480 c0 -15 7 -20 25 -20 24 0 25 -2 25 -70 0 -63 2 -70 20 -70
18 0 20 7 20 70 l0 70 30 0 c23 0 30 4 30 20 0 18 -7 20 -75 20 -68 0 -75 -2
-75 -20z"/>
<path d="M2030 480 c0 -17 7 -20 40 -20 22 0 40 -2 40 -5 0 -3 -18 -30 -40
-59 -22 -29 -40 -58 -40 -64 0 -8 24 -12 70 -12 64 0 70 2 70 21 0 19 -5 21
-40 17 -22 -2 -40 0 -40 3 0 4 18 30 40 58 58 73 55 81 -30 81 -63 0 -70 -2
-70 -20z"/>
<path d="M2443 385 c0 -44 2 -61 4 -37 2 23 2 59 0 80 -2 20 -4 1 -4 -43z"/>
<path d="M2833 385 c0 -44 2 -61 4 -37 2 23 2 59 0 80 -2 20 -4 1 -4 -43z"/>
<path d="M1863 245 c0 -33 2 -45 4 -27 2 18 2 45 0 60 -2 15 -4 0 -4 -33z"/>
<path d="M2442 188 l-2 -87 -47 -4 -48 -3 47 -2 47 -2 4 -47 3 -48 2 48 2 47
271 0 c149 -1 274 2 277 5 6 5 -51 6 -355 5 l-192 0 -4 87 -3 88 -2 -87z"/>
<path d="M2833 195 c0 -44 2 -61 4 -37 2 23 2 59 0 80 -2 20 -4 1 -4 -43z"/>
<path d="M675 164 c-18 -47 -13 -72 9 -41 17 22 25 22 42 0 21 -29 25 -9 8 40
-9 26 -22 47 -29 47 -7 0 -20 -21 -30 -46z"/>
<path d="M832 163 c3 -47 4 -48 33 -45 44 5 61 25 49 59 -8 23 -16 29 -47 31
l-38 3 3 -48z m56 0 c2 -11 -4 -23 -12 -26 -12 -5 -16 1 -16 24 0 35 23 36 28
2z"/>
<path d="M1002 165 c1 -52 14 -67 27 -33 7 17 10 19 10 6 1 -11 9 -18 20 -18
11 0 22 8 24 18 3 12 5 11 6 -6 2 -43 24 -17 26 31 3 55 -20 66 -36 17 -6 -16
-15 -30 -19 -30 -4 0 -13 14 -19 30 -16 48 -39 39 -39 -15z"/>
<path d="M1202 163 c4 -66 28 -70 28 -4 0 39 -4 51 -16 51 -12 0 -14 -10 -12
-47z"/>
<path d="M1320 160 c0 -55 17 -69 22 -17 l3 32 18 -33 c24 -44 40 -36 40 18 0
49 -20 67 -25 23 l-4 -28 -14 28 c-22 44 -40 34 -40 -23z"/>
<path d="M1620 161 c0 -28 5 -51 10 -51 6 0 10 9 10 19 0 13 8 21 23 23 16 2
22 10 22 28 0 21 -5 26 -32 28 l-33 3 0 -50z"/>
<path d="M1778 163 c-18 -50 -15 -70 6 -40 17 22 25 22 42 0 7 -10 15 -15 19
-11 10 10 -25 98 -39 98 -6 0 -19 -21 -28 -47z"/>
<path d="M1935 163 c1 -51 25 -75 25 -26 l1 28 20 -28 c27 -35 39 -27 39 29 0
33 -4 44 -15 44 -11 0 -14 -7 -9 -25 3 -14 2 -25 -3 -25 -6 0 -15 11 -21 25
-19 42 -38 31 -37 -22z"/>
<path d="M2110 160 l0 -50 35 0 c25 0 35 4 35 16 0 9 -7 14 -17 12 -10 -1 -18
2 -18 7 0 6 5 9 12 7 7 -2 13 2 13 8 0 5 -9 10 -20 10 -11 0 -20 5 -20 10 0 6
11 10 25 10 14 0 25 5 25 10 0 6 -16 10 -35 10 l-35 0 0 -50z"/>
<path d="M2270 160 l0 -50 35 0 c24 0 35 5 35 15 0 9 -9 15 -25 15 -22 0 -25
4 -25 35 0 19 -4 35 -10 35 -5 0 -10 -22 -10 -50z"/>
<path d="M310 98 c0 -5 77 -8 172 -8 94 0 169 2 166 5 -8 8 -338 11 -338 3z"/>
<path d="M1470 98 c0 -5 30 -7 68 -7 69 2 62 6 -20 11 -27 2 -48 0 -48 -4z"/>
<path d="M1861 48 c1 -55 5 -50 11 15 2 20 0 37 -4 37 -4 0 -7 -24 -7 -52z"/>
</g>
</svg>
